<svg xmlns="http://www.w3.org/2000/svg" viewBox="0 0 257.97 156.954" width="177" height="108">
    <defs>
        <style>.cls-1{fill:#164193;}.cls-2{fill:#0069b3;}.cls-3{fill:#00b0ea;}.cls-4{fill:#de2120;}</style>
    </defs>
    <g id="Layer_2" data-name="Layer 2">
        <g id="Laag_1" data-name="Laag 1">
            <path class="cls-1"
                  d="M14.708.381c0-.242.139-.381.416-.381h2.149a.347.347,0,0,1,.382.381V24.406a.348.348,0,0,1-.382.382H15.124c-.277,0-.416-.139-.416-.382V13.555H3.129V24.406a.348.348,0,0,1-.382.382H.6c-.277,0-.416-.139-.416-.382V.381C.182.139.321,0,.6,0H2.747a.347.347,0,0,1,.382.381v10.47H14.708Z"/>
            <path class="cls-1"
                  d="M30.1,25.169c-4.681,0-7.627-2.739-7.627-6.8V13.382c0-4.056,2.946-6.9,7.627-6.9,4.714,0,7.626,2.843,7.626,6.9v4.992C37.724,22.43,34.812,25.169,30.1,25.169Zm0-2.531c3.12,0,4.784-1.664,4.784-4.264V13.382c0-2.635-1.664-4.334-4.784-4.334-3.086,0-4.75,1.7-4.75,4.334v4.992C25.348,20.974,27.012,22.638,30.1,22.638Z"/>
            <path class="cls-1"
                  d="M48.608,31.721a9.928,9.928,0,0,1-6.691-2.392c-.173-.139-.173-.312-.034-.555l1-1.49a.342.342,0,0,1,.555-.07,8.029,8.029,0,0,0,5.165,1.942c3.12,0,4.576-1.56,4.472-5.1v-.832a10.784,10.784,0,0,1-4.437,1c-4.16,0-7.454-2.254-7.454-7.072V13.694c0-5.235,3.432-7.211,7.766-7.211a17.114,17.114,0,0,1,6.656,1.352.422.422,0,0,1,.312.451V24.3C55.923,28.844,53.774,31.721,48.608,31.721Zm.243-10.054a8.2,8.2,0,0,0,4.229-1.04V9.638a14.909,14.909,0,0,0-4.09-.59c-2.982,0-4.923,1.214-4.923,4.646v3.467C44.067,20.489,46.112,21.667,48.851,21.667Z"/>
            <path class="cls-1"
                  d="M74.642,16.779c0,.278-.139.416-.381.416H62.924v1.456c0,2.6,1.942,3.987,4.507,3.987a8.208,8.208,0,0,0,5.3-1.941.367.367,0,0,1,.555.1l1,1.317a.344.344,0,0,1-.069.555,10.334,10.334,0,0,1-6.864,2.5c-3.744,0-7.315-2.149-7.315-6.518V13.382c0-4.75,3.536-6.9,7.349-6.9,3.779,0,7.246,2.149,7.246,6.9ZM67.4,9.048c-2.6,0-4.472,1.352-4.472,4.334v1.456h8.945V13.382C71.869,10.435,69.927,9.048,67.4,9.048Z"/>
            <path class="cls-1"
                  d="M84.486,25.169a11.5,11.5,0,0,1-6.865-2.219.391.391,0,0,1-.1-.554l.936-1.6c.139-.243.313-.278.555-.1a9.225,9.225,0,0,0,5.547,1.941c2.323,0,4.091-.971,4.091-2.773,0-1.942-2.15-2.392-4.091-2.774-2.5-.52-6.76-1.49-6.76-5.512,0-3.536,3.363-5.1,6.829-5.1a11.945,11.945,0,0,1,6.033,1.629.318.318,0,0,1,.138.52l-.936,1.56a.335.335,0,0,1-.52.139,10.426,10.426,0,0,0-4.853-1.283c-2.427,0-3.883.971-3.883,2.531,0,1.907,2.045,2.427,4.507,2.912,2.773.555,6.413,1.352,6.413,5.235C91.523,23.262,88.542,25.169,84.486,25.169Z"/>
            <path class="cls-1"
                  d="M101.887,25.169c-4.611,0-7.419-2.773-7.419-6.691v-5.27c0-3.952,2.843-6.725,7.384-6.725A10.046,10.046,0,0,1,107.5,8.216a.384.384,0,0,1,.1.59l-.9,1.421a.393.393,0,0,1-.555.1,7.674,7.674,0,0,0-4.229-1.283c-2.982,0-4.611,1.7-4.611,4.16v5.27c0,2.5,1.664,4.16,4.576,4.16a8.25,8.25,0,0,0,4.646-1.525.341.341,0,0,1,.554.069l1.006,1.422a.361.361,0,0,1-.07.554A9.871,9.871,0,0,1,101.887,25.169Z"/>
            <path class="cls-1"
                  d="M118.56,6.483c4.3,0,7.558,2.184,7.558,7.558V24.406c0,.243-.139.382-.416.382h-2.046a.347.347,0,0,1-.381-.382V14.145c0-3.745-1.767-5.1-4.888-5.1a9.677,9.677,0,0,0-4.161.9V24.406c0,.243-.138.382-.416.382h-2.044a.347.347,0,0,1-.381-.382V.381A.346.346,0,0,1,111.766,0h2.044c.278,0,.416.139.416.381V7.35A10.963,10.963,0,0,1,118.56,6.483Z"/>
            <path class="cls-1"
                  d="M137.7,25.169c-4.679,0-7.627-2.739-7.627-6.8V13.382c0-4.056,2.948-6.9,7.627-6.9,4.715,0,7.627,2.843,7.627,6.9v4.992C145.322,22.43,142.41,25.169,137.7,25.169Zm0-2.531c3.12,0,4.784-1.664,4.784-4.264V13.382c0-2.635-1.664-4.334-4.784-4.334-3.086,0-4.75,1.7-4.75,4.334v4.992C132.945,20.974,134.609,22.638,137.7,22.638Z"/>
            <path class="cls-1"
                  d="M156.414,25.169c-4.68,0-7.627-2.739-7.627-6.8V13.382c0-4.056,2.947-6.9,7.627-6.9,4.715,0,7.627,2.843,7.627,6.9v4.992C164.041,22.43,161.129,25.169,156.414,25.169Zm0-2.531c3.12,0,4.784-1.664,4.784-4.264V13.382c0-2.635-1.664-4.334-4.784-4.334-3.086,0-4.75,1.7-4.75,4.334v4.992C151.664,20.974,153.328,22.638,156.414,22.638Z"/>
            <path class="cls-1"
                  d="M173.3,25.169c-3.328,0-5.235-2.219-5.235-6.379V.381c0-.242.139-.381.416-.381h2.045a.347.347,0,0,1,.382.381V18.825c0,2.7.937,3.744,2.7,3.744a13.634,13.634,0,0,0,1.561-.1c.277,0,.416.139.416.381v1.768a.424.424,0,0,1-.348.451A17.792,17.792,0,0,1,173.3,25.169Z"/>
            <path class="cls-2" d="M53.668,101.285a183.458,183.458,0,0,0-25.986,7.121L70.376,127.1Z"/>
            <path class="cls-2" d="M153.515,109.266A183.162,183.162,0,0,0,97.59,97.987v39.427Z"/>
            <polygon class="cls-3" points="183.428 75.453 220.695 75.453 231.729 48.697 183.428 48.697 183.428 75.453"/>
            <path class="cls-3"
                  d="M139.655,48.7H97.59v49.29a183.162,183.162,0,0,1,55.925,11.279l23.32-11.737a40.345,40.345,0,0,0,1.483-10.941C178.318,64.318,161.306,48.7,139.655,48.7Zm0,49.488H125.273V75.142h14.382c6.186,0,10.98,4.64,10.98,11.446S145.841,98.185,139.655,98.185Z"/>
            <path class="cls-3"
                  d="M53.664,101.279,88.151,48.7H57.221L27.682,94.165V48.7H0V96.264l27.682,12.142a183.458,183.458,0,0,1,25.986-7.121Z"/>
            <path class="cls-1" d="M27.682,156.954V108.406A183.123,183.123,0,0,0,0,120.906v36.048Z"/>
            <polygon class="cls-1"
                     points="27.682 108.406 58.768 156.954 58.769 156.954 82.098 145.212 70.376 127.101 27.682 108.406"/>
            <polygon class="cls-4"
                     points="218.688 130.199 256.733 70.04 256.733 57.315 220.695 75.453 220.699 75.453 220.686 75.474 182.654 135.612 182.654 156.954 257.97 156.954 257.97 130.199 218.688 130.199"/>
            <polygon class="cls-4" points="58.769 156.954 89.698 156.954 82.098 145.212 58.769 156.954"/>
            <path class="cls-4"
                  d="M97.59,137.414v19.54h27.683V124.477h14.382a39.342,39.342,0,0,0,26.678-9.887,36.031,36.031,0,0,0,10.5-17.061l-23.32,11.737Z"/>
        </g>
    </g>
</svg>