<svg width="52" height="52" viewBox="0 0 52 52" fill="none" xmlns="http://www.w3.org/2000/svg">
<path fill-rule="evenodd" clip-rule="evenodd" d="M38.7806 34.9577C45.3993 26.4576 44.8013 14.16 36.9874 6.34601C28.5261 -2.11534 14.8074 -2.11534 6.34603 6.34601C-2.11534 14.8074 -2.11534 28.5259 6.34603 36.9873C14.1601 44.8014 26.4577 45.3991 34.9578 38.7808C34.9944 38.8222 35.0326 38.8628 35.0721 38.9024L46.5628 50.3928C47.6204 51.4506 49.3353 51.4506 50.3929 50.3928C51.4505 49.3351 51.4505 47.6205 50.3929 46.5626L38.9025 35.0723C38.8627 35.0327 38.8221 34.9945 38.7806 34.9577ZM33.157 10.1762C39.5032 16.5222 39.5032 26.811 33.157 33.1572C26.8111 39.5031 16.5222 39.5031 10.1762 33.1572C3.83015 26.811 3.83015 16.5222 10.1762 10.1762C16.5222 3.83016 26.8111 3.83016 33.157 10.1762Z" fill="black"/>
</svg>
